# xmcd CD database file
#
# Track frame offsets:
#	150
#	15832
#	29245
#	46984
#	62221
#	77821
#	92159
#	109808
#	120134
#	134617
#	156725
#	169582
#	186902
#	202247
#	217661
#	232939
#	249683
#	267203
#	281384
#	293434
#	303138
#	321855
#
# Disc length: 4419 seconds
#
# Revision: 0
# Processed by: cddbd v1.5.2PL0 Copyright (c) Steve Scherf et al.
# Submitted via: CDex 1.51
#
DISCID=35114116
DTITLE=Ella Fitzgerald - Ella Fitzgerald - 12 - The George and Ira Gershwin Songbook CD 3
DYEAR=1900
DGENRE=Jazz
TTITLE0=Ella Fitzgerald - Love Is Sweeping The Country
TTITLE1=Ella Fitzgerald - Treat Me Rough
TTITLE2=Ella Fitzgerald - Our Love Is Here To Stay
TTITLE3=Ella Fitzgerald - Slap That Bass
TTITLE4=Ella Fitzgerald - Isn't It A Pity?
TTITLE5=Ella Fitzgerald - Shall We Dance
TTITLE6=Ella Fitzgerald - Love Walked In
TTITLE7=Ella Fitzgerald - You've Got What Gets Me
TTITLE8=Ella Fitzgerald - They Can't Take That Away From
TTITLE9=Ella Fitzgerald - Embraceable You
TTITLE10=Ella Fitzgerald - I Can't Be Bothered Now
TTITLE11=Ella Fitzgerald - Boy! What Love Has Done To Me!
TTITLE12=Ella Fitzgerald - Fascinatin' Rhythm
TTITLE13=Ella Fitzgerald - Funny Face
TTITLE14=Ella Fitzgerald - Lorelei
TTITLE15=Ella Fitzgerald - Oh, So Nice
TTITLE16=Ella Fitzgerald - Let's Kiss And Make Up
TTITLE17=Ella Fitzgerald - I Got Rhythm
TTITLE18=Ella Fitzgerald - Somebody Loves Me
TTITLE19=Ella Fitzgerald - Cheerful Little Earful
TTITLE20=Ella Fitzgerald - Oh, Lady Be Good (Alternative
TTITLE21=Ella Fitzgerald - But Not For Me (Alternative Ta
EXTD=
EXTT0=
EXTT1=
EXTT2=
EXTT3=
EXTT4=
EXTT5=
EXTT6=
EXTT7=
EXTT8=
EXTT9=
EXTT10=
EXTT11=
EXTT12=
EXTT13=
EXTT14=
EXTT15=
EXTT16=
EXTT17=
EXTT18=
EXTT19=
EXTT20=
EXTT21=
PLAYORDER=
